<svg width="24" height="26" fill="none" xmlns="http://www.w3.org/2000/svg"><mask id="mask0_1_235" style="mask-type:luminance" maskUnits="userSpaceOnUse" x="0" y="1" width="24" height="25"><path d="M24 1.13H0v24h24v-24Z" fill="#fff"/></mask><g mask="url('#mask0_1_235')"><mask id="mask1_1_235" style="mask-type:luminance" maskUnits="userSpaceOnUse" x="0" y="1" width="24" height="25"><path d="M24 1.13H0v24h24v-24Z" fill="#fff"/></mask><g mask="url('#mask1_1_235')"><path d="M22 6.31 10.59 17.73l-4.24-4.24 1.41-1.41 2.83 2.83 10-10L22 6.31Zm-2.21 5.04c.13.57.21 1.17.21 1.78 0 4.42-3.58 8-8 8s-8-3.58-8-8 3.58-8 8-8c1.58 0 3.04.46 4.28 1.25l1.44-1.44A9.9 9.9 0 0 0 12 3.13c-5.52 0-10 4.48-10 10s4.48 10 10 10 10-4.48 10-10c0-1.19-.22-2.33-.6-3.39l-1.61 1.61Z" fill="#F62E39"/></g></g></svg>