<svg width="114" height="37" fill="none" xmlns="http://www.w3.org/2000/svg"><g clip-path="url('#clip0_1_919')" fill="#000"><path d="M.575 36.007V8.271h5.516v3.388h.25c.245-.543.6-1.094 1.063-1.655.473-.569 1.086-1.042 1.839-1.418.762-.385 1.707-.578 2.837-.578 1.47 0 2.828.385 4.07 1.156 1.244.761 2.238 1.913 2.982 3.454.744 1.532 1.116 3.454 1.116 5.765 0 2.25-.363 4.15-1.09 5.7-.718 1.54-1.698 2.71-2.942 3.506-1.234.788-2.617 1.182-4.15 1.182-1.085 0-2.009-.18-2.77-.538-.753-.36-1.37-.81-1.852-1.353-.482-.552-.85-1.108-1.103-1.668H6.17v10.795H.575Zm5.477-17.65c0 1.2.166 2.245.499 3.138.333.893.814 1.59 1.444 2.088.63.49 1.397.736 2.299.736.91 0 1.68-.25 2.311-.749.63-.507 1.108-1.208 1.431-2.1.333-.903.5-1.94.5-3.113 0-1.165-.162-2.19-.486-3.073-.324-.885-.802-1.576-1.432-2.075-.63-.5-1.405-.749-2.324-.749-.91 0-1.681.24-2.312.722-.621.482-1.098 1.165-1.431 2.049-.333.884-.5 1.926-.5 3.126ZM23.978 28.443V8.27h5.424v3.52h.21c.368-1.253.985-2.198 1.852-2.837.867-.648 1.865-.972 2.994-.972.28 0 .582.017.906.052.324.035.609.084.854.145v4.964a7.31 7.31 0 0 0-1.09-.21 9.787 9.787 0 0 0-1.274-.092c-.823 0-1.559.18-2.206.538-.64.35-1.147.84-1.524 1.471-.368.63-.551 1.357-.551 2.18v11.413h-5.595ZM39.11 28.443V8.27h5.595v20.172H39.11ZM41.92 5.67c-.831 0-1.545-.275-2.14-.827-.587-.56-.88-1.23-.88-2.01 0-.77.293-1.43.88-1.982a3.013 3.013 0 0 1 2.14-.84c.832 0 1.541.28 2.128.84.595.551.893 1.212.893 1.983 0 .779-.298 1.449-.893 2.01-.587.55-1.296.826-2.127.826ZM54.78 16.78v11.663h-5.594V8.27h5.332v3.559h.236A5.628 5.628 0 0 1 57 9.046c1.05-.692 2.325-1.038 3.822-1.038 1.4 0 2.622.306 3.664.92 1.042.612 1.852 1.488 2.43 2.626.577 1.13.866 2.478.866 4.045v12.844h-5.594V16.597c.008-1.235-.307-2.198-.946-2.89-.64-.7-1.519-1.05-2.64-1.05-.752 0-1.418.162-1.996.486-.569.324-1.015.797-1.34 1.418-.314.613-.477 1.353-.485 2.22ZM82.92 8.27v4.203H70.774V8.271h12.148Zm-9.389-4.832h5.594v18.806c0 .517.08.92.237 1.208.157.28.377.477.657.591.288.114.621.17.998.17.262 0 .525-.021.788-.065.262-.052.464-.092.604-.118l.88 4.163c-.28.088-.674.188-1.182.302-.508.123-1.125.197-1.852.223-1.348.053-2.53-.127-3.546-.538-1.007-.412-1.79-1.05-2.35-1.918-.56-.866-.837-1.96-.828-3.283V3.438Z"/></g><defs><clipPath id="clip0_1_919"><path fill="#fff" transform="translate(.575 .01)" d="M0 0h113.39v35.997H0z"/></clipPath></defs></svg>