<svg width="29" height="16" fill="none" xmlns="http://www.w3.org/2000/svg"><g clip-path="url('#clip0_1_111')"><path d="M28.31.882h-28v14.736h28V.882Z" fill="#B22234"/><path d="M.31 2.582h28Zm28 2.267h-28Zm-28 2.267h28Zm28 2.268h-28Zm-28 2.267h28Zm28 2.267h-28Z" fill="#000"/><path d="M.31 2.582h28m0 2.267h-28m0 2.267h28m0 2.268h-28m0 2.267h28m0 2.267h-28" stroke="#fff" stroke-width="1.134"/><path d="M11.51.882H.31v7.935h11.2V.882Z" fill="#3C3B6E"/><path d="m1.243 1.222.267.82-.698-.507h.863l-.698.507.266-.82ZM1.243 2.809l.267.82-.698-.507h.863l-.698.507.266-.82ZM1.243 4.396l.267.82-.698-.507h.863l-.698.507.266-.82ZM1.243 5.983l.267.82-.698-.507h.863l-.698.507.266-.82ZM1.243 7.57l.267.82-.698-.507h.863l-.698.507.266-.82ZM2.177 2.015l.266.82-.698-.506h.863l-.698.506.267-.82ZM2.177 3.602l.266.82-.698-.506h.863l-.698.507.267-.82ZM2.177 5.19l.266.82-.698-.507h.863l-.698.507.267-.82ZM2.177 6.776l.266.82-.698-.506h.863l-.698.507.267-.82ZM3.11 1.222l.267.82-.698-.507h.862l-.698.507.267-.82ZM3.11 2.809l.267.82-.698-.507h.862l-.698.507.267-.82ZM3.11 4.396l.267.82-.698-.507h.862l-.698.507.267-.82ZM3.11 5.983l.267.82-.698-.507h.862l-.698.507.267-.82ZM3.11 7.57l.267.82-.698-.507h.862l-.698.507.267-.82ZM4.043 2.015l.267.82-.698-.506h.863l-.698.506.266-.82ZM4.043 3.602l.267.82-.698-.506h.863l-.698.507.266-.82ZM4.043 5.19l.267.82-.698-.507h.863l-.698.507.266-.82ZM4.043 6.776l.267.82-.698-.506h.863l-.698.507.266-.82ZM4.977 1.222l.266.82-.698-.507h.863l-.698.507.267-.82ZM4.977 2.809l.266.82-.698-.507h.863l-.698.507.267-.82ZM4.977 4.396l.266.82-.698-.507h.863l-.698.507.267-.82ZM4.977 5.983l.266.82-.698-.507h.863l-.698.507.267-.82ZM4.977 7.57l.266.82-.698-.507h.863l-.698.507.267-.82ZM5.91 2.015l.267.82-.698-.506h.862l-.698.506.267-.82ZM5.91 3.602l.267.82-.698-.506h.862l-.698.507.267-.82ZM5.91 5.19l.267.82-.698-.507h.862l-.698.507.267-.82ZM5.91 6.776l.267.82-.698-.506h.862l-.698.507.267-.82ZM6.843 1.222l.267.82-.698-.507h.863l-.698.507.266-.82ZM6.843 2.809l.267.82-.698-.507h.863l-.698.507.266-.82ZM6.843 4.396l.267.82-.698-.507h.863l-.698.507.266-.82ZM6.843 5.983l.267.82-.698-.507h.863l-.698.507.266-.82ZM6.843 7.57l.267.82-.698-.507h.863l-.698.507.266-.82ZM7.777 2.015l.266.82-.698-.506h.863l-.698.506.267-.82ZM7.777 3.602l.266.82-.698-.506h.863l-.698.507.267-.82ZM7.777 5.19l.266.82-.698-.507h.863l-.698.507.267-.82ZM7.777 6.776l.266.82-.698-.506h.863l-.698.507.267-.82ZM8.71 1.222l.267.82-.698-.507h.862l-.697.507.266-.82ZM8.71 2.809l.267.82-.698-.507h.862l-.697.507.266-.82ZM8.71 4.396l.267.82-.698-.507h.862l-.697.507.266-.82ZM8.71 5.983l.267.82-.698-.507h.862l-.697.507.266-.82ZM8.71 7.57l.267.82-.698-.507h.862l-.697.507.266-.82ZM9.643 2.015l.267.82-.698-.506h.863l-.698.506.266-.82ZM9.643 3.602l.267.82-.698-.506h.863l-.698.507.266-.82ZM9.643 5.19l.267.82-.698-.507h.863l-.698.507.266-.82ZM9.643 6.776l.267.82-.698-.506h.863l-.698.507.266-.82ZM10.577 1.222l.266.82-.698-.507h.863l-.698.507.267-.82ZM10.577 2.809l.266.82-.698-.507h.863l-.698.507.267-.82ZM10.577 4.396l.266.82-.698-.507h.863l-.698.507.267-.82ZM10.577 5.983l.266.82-.698-.507h.863l-.698.507.267-.82ZM10.577 7.57l.266.82-.698-.507h.863l-.698.507.267-.82Z" fill="#fff"/></g><defs><clipPath id="clip0_1_111"><path fill="#fff" transform="translate(.31 .882)" d="M0 0h28v14.737H0z"/></clipPath></defs></svg>