<svg width="38" height="38" fill="none" xmlns="http://www.w3.org/2000/svg"><g clip-path="url('#clip0_1_55')"><mask id="mask0_1_55" style="mask-type:luminance" maskUnits="userSpaceOnUse" x="0" y="0" width="38" height="38"><path d="M37.5.11H.5v37h37v-37Z" fill="#fff"/></mask><g mask="url('#mask0_1_55')"><mask id="mask1_1_55" style="mask-type:luminance" maskUnits="userSpaceOnUse" x="0" y="0" width="38" height="38"><path d="M37.5.11H.5v37h37v-37Z" fill="#fff"/></mask><g mask="url('#mask1_1_55')"><path d="m8.7 22.47-1.288 4.808-4.707.1A18.418 18.418 0 0 1 .5 18.61c0-3.068.746-5.96 2.069-8.508l4.191.768 1.836 4.166a10.997 10.997 0 0 0-.593 3.574c0 1.358.246 2.66.697 3.86Z" fill="#FBBB00"/><path d="M37.176 15.154c.213 1.12.323 2.275.323 3.456 0 1.325-.139 2.617-.404 3.863a18.495 18.495 0 0 1-6.514 10.564l-5.28-.27-.746-4.664a11.025 11.025 0 0 0 4.744-5.63h-9.893v-7.319h17.77Z" fill="#518EF8"/><path d="M30.581 33.036a18.42 18.42 0 0 1-11.58 4.074c-7.046 0-13.171-3.938-16.296-9.733L8.7 22.47c1.563 4.17 5.585 7.137 10.3 7.137 2.027 0 3.926-.547 5.555-1.504l6.026 4.933Z" fill="#28B446"/><path d="m30.808 4.369-5.993 4.907A10.935 10.935 0 0 0 19 7.613c-4.822 0-8.92 3.104-10.404 7.423L2.57 10.102C5.65 4.166 11.85.11 19 .11c4.49 0 8.605 1.599 11.81 4.259Z" fill="#F14336"/></g></g></g><defs><clipPath id="clip0_1_55"><path fill="#fff" transform="translate(.5 .11)" d="M0 0h37v37H0z"/></clipPath></defs></svg>