<svg width="20" height="21" fill="none" xmlns="http://www.w3.org/2000/svg"><g clip-path="url('#clip0_1_699')"><mask id="mask0_1_699" style="mask-type:luminance" maskUnits="userSpaceOnUse" x="0" y="0" width="20" height="21"><path d="M20 .35H0v20h20v-20Z" fill="#fff"/></mask><g mask="url('#mask0_1_699')"><mask id="mask1_1_699" style="mask-type:luminance" maskUnits="userSpaceOnUse" x="0" y="0" width="20" height="21"><path d="M20 .35H0v20h20v-20Z" fill="#fff"/></mask><g mask="url('#mask1_1_699')"><path d="m4.432 12.436-.696 2.6-2.544.053A9.956 9.956 0 0 1 0 10.35a9.95 9.95 0 0 1 1.118-4.599l2.266.416.992 2.251a5.945 5.945 0 0 0-.32 1.932c0 .734.132 1.438.376 2.086Z" fill="#FBBB00"/><path d="M19.825 8.482a10.019 10.019 0 0 1-.044 3.956 9.997 9.997 0 0 1-3.52 5.71l-2.855-.146-.403-2.52a5.96 5.96 0 0 0 2.564-3.044H10.22V8.482h9.605Z" fill="#518EF8"/><path d="M16.26 18.148A9.957 9.957 0 0 1 10 20.35a9.999 9.999 0 0 1-8.808-5.261l3.24-2.653a5.946 5.946 0 0 0 8.57 3.045l3.258 2.667Z" fill="#28B446"/><path d="m16.383 2.652-3.24 2.652a5.948 5.948 0 0 0-8.767 3.114L1.12 5.751a9.997 9.997 0 0 1 8.88-5.4c2.427 0 4.652.863 6.384 2.301Z" fill="#F14336"/></g></g></g><defs><clipPath id="clip0_1_699"><path fill="#fff" transform="translate(0 .35)" d="M0 0h20v20H0z"/></clipPath></defs></svg>