<svg width="18" height="18" fill="none" xmlns="http://www.w3.org/2000/svg"><g clip-path="url('#clip0_1_911')"><path fill-rule="evenodd" clip-rule="evenodd" d="M9 6.69a2.4 2.4 0 1 0 0 4.799 2.4 2.4 0 0 0 0-4.8Zm0-1.6a4 4 0 1 1 0 7.999 4 4 0 0 1 0-8Zm4.2-1.2a1 1 0 1 1 0 2 1 1 0 0 1 0-2Zm-7.72-1.2A2.88 2.88 0 0 0 2.6 5.57v7.04a2.878 2.878 0 0 0 2.88 2.88h7.04a2.88 2.88 0 0 0 2.88-2.88V5.57a2.878 2.878 0 0 0-2.88-2.88H5.48Zm.16-1.6h6.72c2.56 0 4.64 2.08 4.64 4.64v6.72a4.64 4.64 0 0 1-4.64 4.64H5.64C3.08 17.09 1 15.01 1 12.45V5.73a4.64 4.64 0 0 1 4.64-4.64Z" fill="#0E1320"/></g><defs><clipPath id="clip0_1_911"><path fill="#fff" transform="translate(.5 .5)" d="M0 0h17v17H0z"/></clipPath></defs></svg>