<svg width="25" height="24" fill="none" xmlns="http://www.w3.org/2000/svg"><g clip-path="url('#clip0_1_105')"><path d="M12.47 2c-5.52 0-10 4.48-10 10s4.48 10 10 10 10-4.48 10-10-4.48-10-10-10Zm-8 10c0-.61.08-1.21.21-1.78L9.46 15v1c0 1.1.9 2 2 2v1.93c-3.93-.5-6.99-3.86-6.99-7.93Zm13.89 5.4c-.26-.81-1-1.4-1.9-1.4h-1v-3c0-.55-.45-1-1-1h-6v-2h2c.55 0 1-.45 1-1V7h2c1.1 0 2-.9 2-2v-.41c2.93 1.18 5.01 4.06 5.01 7.41 0 2.08-.81 3.98-2.11 5.4Z" fill="#000"/></g><defs><clipPath id="clip0_1_105"><path fill="#fff" transform="translate(.47)" d="M0 0h24v24H0z"/></clipPath></defs></svg>