<svg width="16" height="14" fill="none" xmlns="http://www.w3.org/2000/svg"><g clip-path="url('#clip0_1_914')"><path fill-rule="evenodd" clip-rule="evenodd" d="M15.845 2.09c-.578.262-1.2.434-1.845.517A3.224 3.224 0 0 0 15.41.822a6.48 6.48 0 0 1-2.04.787C12.778.964 11.945.59 11 .59a3.214 3.214 0 0 0-3.202 3.218c0 .255.03.502.082.735a9.146 9.146 0 0 1-6.63-3.36 3.183 3.183 0 0 0-.435 1.612c0 1.118.563 2.108 1.433 2.67-.533 0-1.028-.15-1.463-.375v.023a3.22 3.22 0 0 0 2.58 3.157 3.166 3.166 0 0 1-1.447.053 3.21 3.21 0 0 0 3 2.235 6.391 6.391 0 0 1-3.998 1.38c-.255 0-.51-.015-.765-.045a9.108 9.108 0 0 0 4.935 1.447c5.91 0 9.157-4.905 9.157-9.157 0-.143 0-.278-.007-.42.63-.45 1.17-1.02 1.605-1.673Z" fill="#0E1320"/></g><defs><clipPath id="clip0_1_914"><path fill="#fff" transform="translate(0 .5)" d="M0 0h16v13H0z"/></clipPath></defs></svg>