<svg width="122" height="22" fill="none" xmlns="http://www.w3.org/2000/svg"><g clip-path="url('#clip0_1_13')"><mask id="mask0_1_13" style="mask-type:luminance" maskUnits="userSpaceOnUse" x="1" y="0" width="21" height="21"><path d="M21.188.79h-20v20h20v-20Z" fill="#fff"/></mask><g mask="url('#mask0_1_13')" fill="#FFDC00"><path d="M13.544 8.106H1.187l6.18 4.845 3.82 2.993 6.18 4.845-2.36-7.839 6.18-4.844h-7.643Z"/><path fill-rule="evenodd" clip-rule="evenodd" d="M9.352 7.397 11.36.79l2.007 6.608H9.352Zm-2.014 6.634 3.307 2.592-5.36 4.166 2.053-6.758Z"/></g></g><g clip-path="url('#clip1_1_13')"><mask id="mask1_1_13" style="mask-type:luminance" maskUnits="userSpaceOnUse" x="26" y="0" width="21" height="21"><path d="M46.188.79h-20v20h20v-20Z" fill="#fff"/></mask><g mask="url('#mask1_1_13')" fill="#FFDC00"><path d="M38.544 8.106H26.188l6.18 4.845 3.82 2.993 6.18 4.845-2.36-7.839 6.18-4.844h-7.644Z"/><path fill-rule="evenodd" clip-rule="evenodd" d="M34.352 7.397 36.36.79l2.007 6.608h-4.014Zm-2.014 6.634 3.306 2.592-5.359 4.166 2.053-6.758Z"/></g></g><g clip-path="url('#clip2_1_13')"><mask id="mask2_1_13" style="mask-type:luminance" maskUnits="userSpaceOnUse" x="51" y="0" width="21" height="21"><path d="M71.188.79h-20v20h20v-20Z" fill="#fff"/></mask><g mask="url('#mask2_1_13')" fill="#FFDC00"><path d="M63.544 8.106H51.188l6.18 4.845 3.82 2.993 6.18 4.845-2.36-7.839 6.18-4.844h-7.644Z"/><path fill-rule="evenodd" clip-rule="evenodd" d="M59.352 7.397 61.36.79l2.007 6.608h-4.014Zm-2.014 6.634 3.306 2.592-5.359 4.166 2.053-6.758Z"/></g></g><g clip-path="url('#clip3_1_13')"><mask id="mask3_1_13" style="mask-type:luminance" maskUnits="userSpaceOnUse" x="76" y="0" width="21" height="21"><path d="M96.188.79h-20v20h20v-20Z" fill="#fff"/></mask><g mask="url('#mask3_1_13')" fill="#FFDC00"><path d="M88.544 8.106H76.188l6.18 4.845 3.82 2.993 6.18 4.845-2.36-7.839 6.18-4.844h-7.644Z"/><path fill-rule="evenodd" clip-rule="evenodd" d="M84.353 7.397 86.359.79l2.007 6.608h-4.013Zm-2.015 6.634 3.306 2.592-5.359 4.166 2.053-6.758Z"/></g></g><g clip-path="url('#clip4_1_13')"><mask id="mask4_1_13" style="mask-type:luminance" maskUnits="userSpaceOnUse" x="101" y="0" width="21" height="21"><path d="M121.188.79h-20v20h20v-20Z" fill="#fff"/></mask><g mask="url('#mask4_1_13')" fill="#FFDC00"><path d="M113.544 8.106h-12.356l6.18 4.845 3.82 2.993 6.18 4.845-2.361-7.839 6.181-4.844h-7.644Z"/><path fill-rule="evenodd" clip-rule="evenodd" d="M109.352 7.397 111.359.79l2.007 6.608h-4.014Zm-2.014 6.634 3.306 2.592-5.359 4.166 2.053-6.758Z"/></g></g><defs><clipPath id="clip0_1_13"><path fill="#fff" transform="translate(.5 .11)" d="M0 0h21v21H0z"/></clipPath><clipPath id="clip1_1_13"><path fill="#fff" transform="translate(25.5 .11)" d="M0 0h21v21H0z"/></clipPath><clipPath id="clip2_1_13"><path fill="#fff" transform="translate(50.5 .11)" d="M0 0h21v21H0z"/></clipPath><clipPath id="clip3_1_13"><path fill="#fff" transform="translate(75.5 .11)" d="M0 0h21v21H0z"/></clipPath><clipPath id="clip4_1_13"><path fill="#fff" transform="translate(100.5 .11)" d="M0 0h21v21H0z"/></clipPath></defs></svg>